# File created by Blade
# Date/Time:  Thu Sep 25 15:31:15 2014
# Frame Rate: 120.000 fps
#------------------------------------------------------
:FULLY-SPECIFIED
:DEGREES
737
root 11.058097 33.319353 -2.008455 199.811357 -71.208770 -119.518418
Spine 17.634750 12.868103 -9.740473
Head -57.933189 5.789912 0.037994
LeftShoulder 6.375190 12.371067 29.920641
LeftArm 66.690463 -32.003745 -36.191376
LeftForeArm 7.950068 -0.000000 30.370054
LeftHand -33.304011 -0.000000 21.388700
LeftHandThumb1 -26.253704 0.000000 33.147579
RightShoulder 2.064806 41.801384 -40.216066
RightArm 48.712296 -10.342487 61.445943
RightForeArm -22.111014 -0.000000 24.451601
RightHand -7.659275 -0.000000 -3.628436
RightHandThumb1 -24.326973 -0.000000 -32.862282
LeftUpLeg -87.247091 8.056849 11.163469
LeftLeg 16.872290 -0.000000 -0.000000
LeftFoot -17.064946 23.527451 -17.478278
LeftToeBase 3.459708 -0.000000 -0.000000
RightUpLeg -41.211799 -7.071806 18.282017
RightLeg 2.621029 -0.000000 -0.000000
RightFoot 10.692334 5.421213 7.636261
RightToeBase -11.929942 -0.000000 0.000000
738
root 11.344401 33.315909 -2.029458 199.154540 -71.159888 -119.862874
Spine 17.718223 13.113608 -9.362420
Head -57.480859 5.803958 -0.076492
LeftShoulder 6.520465 11.946628 29.607247
LeftArm 66.484449 -30.055012 -36.653033
LeftForeArm 7.982508 0.000000 30.622147
LeftHand -33.241416 -0.000000 21.312095
LeftHandThumb1 -26.253704 0.000000 33.147579
RightShoulder 2.269058 41.831995 -39.964541
RightArm 47.942163 -11.418517 62.403795
RightForeArm -22.247782 0.000000 24.359655
RightHand -7.595858 -0.000000 -3.285129
RightHandThumb1 -24.326973 -0.000000 -32.862282
LeftUpLeg -86.601559 8.084784 11.080879
LeftLeg 16.522638 -0.000000 -0.000000
LeftFoot -16.492704 23.531557 -17.221530
LeftToeBase 3.795577 -0.000000 -0.000000
RightUpLeg -41.365293 -6.910852 18.300262
RightLeg 2.538255 -0.000000 -0.000000
RightFoot 9.496054 5.251106 7.735850
RightToeBase -13.129497 -0.000000 0.000000
739
root 11.626451 33.310494 -2.052151 198.475990 -71.121214 -120.142817
Spine 17.774095 13.484560 -9.016793
Head -57.046283 5.913662 0.040796
LeftShoulder 6.665268 11.830772 29.390296
LeftArm 66.825247 -28.368955 -37.417212
LeftForeArm 8.217554 -0.000000 30.649555
LeftHand -32.896722 -0.000000 20.941261
LeftHandThumb1 -26.253704 0.000000 33.147579
RightShoulder 2.290030 41.976403 -39.658059
RightArm 46.983453 -12.591738 63.328218
RightForeArm -22.298882 -0.000000 24.259867
RightHand -7.314363 -0.000000 -2.792510
RightHandThumb1 -24.326973 -0.000000 -32.862282
LeftUpLeg -85.963611 8.111967 11.074233
LeftLeg 16.140100 -0.000000 -0.000000
LeftFoot -15.894156 23.727066 -16.934512
LeftToeBase 4.034067 -0.000000 -0.000000
RightUpLeg -41.517261 -6.765871 18.366985
RightLeg 2.444363 -0.000000 -0.000000
RightFoot 8.525340 5.019635 7.912538
RightToeBase -13.956397 -0.000000 0.000000
740
root 11.910457 33.306517 -2.076310 197.897670 -71.055233 -120.571460
Spine 17.905148 13.530099 -8.829769
Head -56.737534 6.316830 0.173043
LeftShoulder 6.566258 11.793296 29.065818
LeftArm 66.851810 -26.705218 -37.762557
LeftForeArm 8.128431 -0.000000 30.645798
LeftHand -32.594739 0.000000 20.806073
LeftHandThumb1 -26.253704 0.000000 33.147579
RightShoulder 2.691260 41.855243 -39.053267
RightArm 46.529720 -13.489691 64.032442
RightForeArm -22.195243 -0.000000 24.159990
RightHand -7.236970 0.000000 -2.186596
RightHandThumb1 -24.326973 -0.000000 -32.862282
LeftUpLeg -85.276138 8.136835 11.081038
LeftLeg 15.756892 -0.000000 -0.000000
LeftFoot -15.307928 23.870281 -16.776819
LeftToeBase 4.329718 -0.000000 -0.000000
RightUpLeg -41.596243 -6.671652 18.426017
RightLeg 2.311928 -0.000000 -0.000000
RightFoot 7.627856 4.728154 8.395698
RightToeBase -14.012716 -0.000000 0.000000
741
root 12.194125 33.301319 -2.104172 197.216108 -71.018974 -120.873960
Spine 18.022773 13.523685 -8.596581
Head -56.343305 6.701897 0.300491
LeftShoulder 6.458750 11.532417 28.674865
LeftArm 66.694375 -24.895534 -38.020721
LeftForeArm 8.256599 -0.000000 30.602060
LeftHand -32.456087 0.000000 20.624208
LeftHandThumb1 -26.253704 0.000000 33.147579
RightShoulder 3.111417 41.787588 -38.486953
RightArm 45.986244 -14.310847 64.842179
RightForeArm -22.193136 -0.000000 23.977526
RightHand -7.211312 -0.000000 -2.241938
RightHandThumb1 -24.326973 -0.000000 -32.862282
LeftUpLeg -84.616414 8.158278 11.166508
LeftLeg 15.399825 -0.000000 -0.000000
LeftFoot -14.649997 24.023799 -16.561731
LeftToeBase 4.440863 -0.000000 -0.000000
RightUpLeg -41.679439 -6.716036 18.653833
RightLeg 2.230128 -0.000000 -0.000000
RightFoot 6.799808 4.560042 8.651999
RightToeBase -14.011359 -0.000000 0.000000
742
root 12.474094 33.294521 -2.132912 196.649783 -70.993365 -121.315816
Spine 18.193964 13.568112 -8.391032
Head -55.977121 6.915725 0.393805
LeftShoulder 6.443510 11.137825 28.304694
LeftArm 66.488217 -23.084919 -38.325318
LeftForeArm 8.746877 -0.000000 30.482136
LeftHand -32.419382 -0.000000 20.632782
LeftHandThumb1 -26.253704 0.000000 33.147579
RightShoulder 3.493235 41.972372 -38.000080
RightArm 45.047622 -15.059376 65.912503
RightForeArm -22.505252 -0.000000 23.832796
RightHand -7.135420 -0.000000 -1.901557
RightHandThumb1 -24.326973 -0.000000 -32.862282
LeftUpLeg -83.898077 8.149549 11.228284
LeftLeg 14.970603 -0.000000 -0.000000
LeftFoot -13.993830 24.181712 -16.418852
LeftToeBase 4.528367 -0.000000 -0.000000
RightUpLeg -41.734845 -6.886081 18.921163
RightLeg 2.179616 -0.000000 -0.000000
RightFoot 5.961680 4.467045 8.602617
RightToeBase -14.074647 -0.000000 0.000000
743
root 12.755134 33.287518 -2.161096 196.156361 -70.971328 -121.768594
Spine 18.299891 13.669934 -8.247894
Head -55.602679 7.100796 0.667042
LeftShoulder 6.438779 10.765195 28.028185
LeftArm 66.364574 -21.296094 -38.671708
LeftForeArm 8.813550 0.000000 30.318089
LeftHand -32.172349 -0.000000 20.104186
LeftHandThumb1 -26.253704 0.000000 33.147579
RightShoulder 3.737480 42.096964 -37.435828
RightArm 44.179525 -15.842323 66.832580
RightForeArm -22.638395 0.000000 23.698588
RightHand -7.031233 -0.000000 -1.316715
RightHandThumb1 -24.326973 -0.000000 -32.862282
LeftUpLeg -83.225950 8.150632 11.274044
LeftLeg 14.506470 -0.000000 -0.000000
LeftFoot -13.313966 24.315025 -16.334337
LeftToeBase 4.592021 -0.000000 -0.000000
RightUpLeg -41.823605 -7.007579 19.168293
RightLeg 2.176518 -0.000000 -0.000000
RightFoot 5.153293 4.307102 8.158034
RightToeBase -14.203723 -0.000000 0.000000
744
root 13.041085 33.276743 -2.206573 195.192386 -70.989956 -121.717860
Spine 18.369756 13.838634 -7.884258
Head -55.182024 7.240024 0.832491
LeftShoulder 6.500107 10.353922 27.721864
LeftArm 66.217241 -19.411345 -38.823614
LeftForeArm 8.986337 -0.000000 29.990198
LeftHand -32.015393 -0.000000 20.087200
LeftHandThumb1 -26.253704 0.000000 33.147579
RightShoulder 3.915191 41.475854 -36.944619
RightArm 43.985432 -16.472310 67.392293
RightForeArm -22.648444 -0.000000 23.466058
RightHand -6.861127 -0.000000 -0.994259
RightHandThumb1 -24.326973 -0.000000 -32.862282
LeftUpLeg -82.618811 8.223760 11.396070
LeftLeg 14.113541 -0.000000 -0.000000
LeftFoot -12.637396 24.307506 -16.269679
LeftToeBase 4.582460 -0.000000 -0.000000
RightUpLeg -41.880236 -7.220236 19.697298
RightLeg 2.179260 -0.000000 -0.000000
RightFoot 4.495320 4.154947 7.757216
RightToeBase -13.993462 -0.000000 0.000000
745
root 13.319680 33.263050 -2.243245 194.644245 -70.972114 -122.109325
Spine 18.462589 13.944207 -7.780746
Head -54.725217 7.253013 1.232611
LeftShoulder 6.459386 9.880835 27.430244
LeftArm 66.062077 -17.468799 -38.902229
LeftForeArm 8.697235 -0.000000 29.600024
LeftHand -32.011894 0.000000 20.718179
LeftHandThumb1 -26.253704 0.000000 33.147579
RightShoulder 4.094921 40.794242 -36.249727
RightArm 44.060737 -17.249995 67.597853
RightForeArm -22.321715 -0.000000 23.205797
RightHand -6.766494 -0.000000 -0.835680
RightHandThumb1 -24.326973 -0.000000 -32.862282
LeftUpLeg -81.940767 8.242468 11.500186
LeftLeg 13.644965 -0.000000 -0.000000
LeftFoot -11.987365 24.423908 -16.315139
LeftToeBase 4.524883 -0.000000 -0.000000
RightUpLeg -41.936001 -7.453113 20.060454
RightLeg 2.228778 -0.000000 -0.000000
RightFoot 3.876838 3.756283 7.571049
RightToeBase -13.681475 -0.000000 0.000000
746
root 13.594597 33.248133 -2.276010 194.216099 -71.037286 -122.650324
Spine 18.642901 13.901841 -7.654908
Head -54.368435 7.429507 1.443825
LeftShoulder 7.411670 -1.588055 28.264827
LeftArm 56.794713 -8.016236 -42.242551
LeftForeArm 11.147546 -0.000000 31.398738
LeftHand -32.813072 -0.000000 20.557108
LeftHandThumb1 -26.253704 0.000000 33.147579
RightShoulder 4.282793 40.282616 -35.669334
RightArm 43.965981 -17.956795 67.946845
RightForeArm -22.131694 -0.000000 22.984655
RightHand -6.741922 0.000000 -0.475835
RightHandThumb1 -24.326973 -0.000000 -32.862282
LeftUpLeg -81.266968 8.184727 11.425140
LeftLeg 13.176692 -0.000000 -0.000000
LeftFoot -11.268200 24.436905 -16.266311
LeftToeBase 4.507144 -0.000000 -0.000000
RightUpLeg -41.993932 -7.784513 20.369529
RightLeg 2.383850 -0.000000 -0.000000
RightFoot 3.301426 3.460166 7.402796
RightToeBase -13.304310 -0.000000 0.000000
747
root 13.874461 33.229990 -2.316321 193.574228 -71.125667 -122.993240
Spine 18.842017 13.989220 -7.401330
Head -53.924430 7.428162 1.636781
LeftShoulder 7.579419 -1.494953 28.023395
LeftArm 56.956380 -6.787447 -42.718228
LeftForeArm 11.176724 -0.000000 30.799098
LeftHand -32.558411 0.000000 20.177656
LeftHandThumb1 -26.253704 0.000000 33.147579
RightShoulder 4.399235 39.907650 -35.256289
RightArm 43.511441 -18.602535 68.488436
RightForeArm -22.149109 0.000000 22.750894
RightHand -6.563825 0.000000 -0.137775
RightHandThumb1 -24.326973 -0.000000 -32.862282
LeftUpLeg -80.594559 8.140184 11.433624
LeftLeg 12.777379 -0.000000 -0.000000
LeftFoot -10.630588 24.347397 -16.343899
LeftToeBase 4.445874 -0.000000 -0.000000
RightUpLeg -41.987090 -8.106813 20.745522
RightLeg 2.513613 -0.000000 -0.000000
RightFoot 2.840985 3.041390 7.338175
RightToeBase -13.241924 -0.000000 0.000000
748
root 14.157751 33.208203 -2.361823 192.884845 -71.175280 -123.243266
Spine 18.983314 13.969906 -7.188901
Head -53.561123 7.490384 1.754613
LeftShoulder 7.642557 -1.558276 27.655150
LeftArm 56.710585 -5.406428 -43.009351
LeftForeArm 11.292696 0.000000 30.601948
LeftHand -32.710483 0.000000 20.309429
LeftHandThumb1 -26.253704 0.000000 33.147579
RightShoulder 4.612705 39.563394 -34.868189
RightArm 43.094159 -19.224885 69.078592
RightForeArm -21.915409 -0.000000 22.513165
RightHand -6.540335 -0.000000 -0.005373
RightHandThumb1 -24.326973 -0.000000 -32.862282
LeftUpLeg -79.958957 8.144763 11.458373
LeftLeg 12.335779 -0.000000 -0.000000
LeftFoot -9.916235 24.422588 -16.230272
LeftToeBase 4.519146 -0.000000 -0.000000
RightUpLeg -42.024925 -8.382021 21.157069
RightLeg 2.764359 -0.000000 -0.000000
RightFoot 2.457555 2.686441 7.195420
RightToeBase -12.976480 -0.000000 0.000000
749
root 14.432366 33.184553 -2.399359 192.606908 -71.225390 -123.982655
Spine 19.205593 14.011535 -7.164360
Head -53.188134 7.578144 2.013703
LeftShoulder 7.769869 -1.533097 27.298538
LeftArm 56.672291 -4.140091 -43.146914
LeftForeArm 11.476664 -0.000000 30.132207
LeftHand -32.758991 -0.000000 21.036672
LeftHandThumb1 -26.253704 0.000000 33.147579
RightShoulder 4.792602 39.381216 -34.451444
RightArm 42.439976 -19.811727 69.758242
RightForeArm -21.723842 -0.000000 22.224018
RightHand -6.433641 -0.000000 0.207327
RightHandThumb1 -24.326973 -0.000000 -32.862282
LeftUpLeg -79.226414 8.084331 11.302426
LeftLeg 11.812711 -0.000000 -0.000000
LeftFoot -9.171439 24.505418 -16.095733
LeftToeBase 4.519654 -0.000000 -0.000000
RightUpLeg -41.972790 -8.619654 21.300659
RightLeg 2.996929 -0.000000 -0.000000
RightFoot 2.296428 2.372627 6.805934
RightToeBase -12.832385 -0.000000 0.000000
